<?xml version="1.0" encoding="UTF-8" standalone="no"?>
<!-- Created with Inkscape (http://www.inkscape.org/) -->

<svg
   xmlns:dc="http://purl.org/dc/elements/1.1/"
   xmlns:cc="http://creativecommons.org/ns#"
   xmlns:rdf="http://www.w3.org/1999/02/22-rdf-syntax-ns#"
   xmlns:svg="http://www.w3.org/2000/svg"
   xmlns="http://www.w3.org/2000/svg"
   xmlns:sodipodi="http://sodipodi.sourceforge.net/DTD/sodipodi-0.dtd"
   xmlns:inkscape="http://www.inkscape.org/namespaces/inkscape"
   width="210mm"
   height="297mm"
   id="svg3027"
   version="1.1"
   inkscape:version="0.48.2 r9819"
   sodipodi:docname="Nouveau document 2">
  <defs
     id="defs3" />
  <sodipodi:namedview
     inkscape:document-units="mm"
     id="base"
     pagecolor="#ffffff"
     bordercolor="#666666"
     borderopacity="1.0"
     inkscape:pageopacity="0.0"
     inkscape:pageshadow="2"
     inkscape:zoom="1.1333984"
     inkscape:cx="350"
     inkscape:cy="731.75254"
     inkscape:current-layer="layer1"
     showgrid="false"
     inkscape:window-width="1920"
     inkscape:window-height="1028"
     inkscape:window-x="-8"
     inkscape:window-y="-8"
     inkscape:window-maximized="1" />
  <metadata
     id="metadata4">
    <rdf:RDF>
      <cc:Work
         rdf:about="">
        <dc:format>image/svg+xml</dc:format>
        <dc:type
           rdf:resource="http://purl.org/dc/dcmitype/StillImage" />
        <dc:title></dc:title>
      </cc:Work>
    </rdf:RDF>
  </metadata>
  <g
     inkscape:label="Layer 1"
     inkscape:groupmode="layer"
     id="layer1">
    <rect
       style="opacity:0.71317827;fill:#000000;fill-opacity:0.09803922;stroke:#000000;stroke-opacity:1"
       id="rect3033"
       width="425.26968"
       height="618.4939"
       x="180.87196"
       y="103.00495" />
    <path
       sodipodi:type="spiral"
       style="fill:none;stroke:#000000;stroke-width:1px;stroke-linecap:butt;stroke-linejoin:miter;stroke-opacity:1"
       id="path3035"
       sodipodi:cx="112.05238"
       sodipodi:cy="38.596889"
       sodipodi:expansion="1"
       sodipodi:revolution="3"
       sodipodi:radius="24.767405"
       sodipodi:argument="-18.920864"
       sodipodi:t0="0"
       d="m 112.05238,38.596889 c 1.23865,-0.08847 0.73037,1.626015 0.14706,2.058706 -1.58075,1.172564 -3.64282,-0.205831 -4.26447,-1.764602 -1.11198,-2.788275 0.9969,-5.698561 3.67626,-6.470219 3.93206,-1.132439 7.79008,1.78961 8.67597,5.587908 1.18077,5.062535 -2.5817,9.895323 -7.49956,10.881733 -6.18861,1.241297 -12.00736,-3.373226 -13.087488,-9.411214 -1.308177,-7.312814 4.164358,-14.123284 11.322868,-15.293248 8.43606,-1.378761 16.24163,4.95524 17.499,13.234522 1.45169,9.558758 -5.74595,18.361594 -15.14617,19.704761 C 102.69472,58.651428 92.893157,50.58868 91.465332,40.067408 89.863528,28.264131 98.792408,17.462789 110.43481,15.951133 c 12.92528,-1.678226 24.72717,8.117536 26.32204,20.881134" />
    <path
       sodipodi:type="spiral"
       style="fill:none;stroke:#000000;stroke-width:1px;stroke-linecap:butt;stroke-linejoin:miter;stroke-opacity:1"
       id="path3037"
       sodipodi:cx="120.87541"
       sodipodi:cy="52.713726"
       sodipodi:expansion="1"
       sodipodi:revolution="3"
       sodipodi:radius="19.59029"
       sodipodi:argument="-15.843491"
       sodipodi:t0="0"
       d="m 120.87541,52.713726 c -0.97322,0.132711 -0.65904,-1.246405 -0.22057,-1.617554 1.18822,-1.005792 2.88586,-0.02244 3.45568,1.176404 1.01927,2.144453 -0.49763,4.548707 -2.57338,5.293813 -3.04625,1.093473 -6.23987,-1.017182 -7.13195,-3.970363 -1.189,-3.936126 1.53556,-7.941825 5.36735,-8.970071 4.82191,-1.293943 9.64912,2.053122 10.8082,6.764321 1.4038,5.705894 -2.57019,11.359461 -8.1613,12.64633 -6.58894,1.516531 -13.0717,-3.086935 -14.48446,-9.55828 -1.63109,-7.471424 3.60347,-14.785212 10.95526,-16.322589 8.35357,-1.746864 16.49961,4.119854 18.16071,12.352239 1.86351,9.235493 -4.63613,18.214661 -13.74921,19.998847 -10.11726,1.980785 -19.9302,-5.152333 -21.83698,-15.146197"
       transform="translate(19.410649,1.7646045)" />
    <path
       sodipodi:type="spiral"
       style="fill:none;stroke:#000000;stroke-width:1px;stroke-linecap:butt;stroke-linejoin:miter;stroke-opacity:1"
       id="path3039"
       sodipodi:cx="131.46304"
       sodipodi:cy="23.59775"
       sodipodi:expansion="1"
       sodipodi:revolution="3"
       sodipodi:radius="19.005373"
       sodipodi:argument="-17.659266"
       sodipodi:t0="0"
       d="m 131.46304,23.59775 c 0.3539,0.884745 -1.01801,0.913548 -1.4705,0.588201 -1.22621,-0.881673 -0.70015,-2.710831 0.2941,-3.529209 1.77848,-1.463888 4.39823,-0.601925 5.58792,1.176405 1.74591,2.609771 0.51085,6.112149 -2.05871,7.646619 -3.42483,2.045207 -7.83597,0.423437 -9.70533,-2.941012 -2.35239,-4.233815 -0.33803,-9.564614 3.82332,-11.764029 5.03995,-2.663786 11.29601,-0.253812 13.82273,4.705619 2.97766,5.844517 0.17034,13.029115 -5.58792,15.881438 -6.64814,3.29312 -14.76337,0.08737 -17.94014,-6.470225 -3.60966,-7.451159 -0.005,-16.498424 7.35252,-19.9988482 8.25376,-3.9269472 18.23407,0.077618 22.05756,8.2348312 4.2448,9.056054 -0.1598,19.970144 -9.11714,24.116259"
       transform="translate(16.763743,3.529209)" />
    <path
       sodipodi:type="spiral"
       style="fill:none;stroke:#000000;stroke-width:1px;stroke-linecap:butt;stroke-linejoin:miter;stroke-opacity:1"
       id="path3041"
       sodipodi:cx="157.0498"
       sodipodi:cy="55.36063"
       sodipodi:expansion="1"
       sodipodi:revolution="3"
       sodipodi:radius="16.22093"
       sodipodi:argument="-16.493361"
       sodipodi:t0="0"
       d="m 157.0498,55.36063 c -0.57508,0.575084 -1.05892,-0.491477 -0.95582,-0.955828 0.2794,-1.258365 1.8912,-1.460654 2.86748,-0.955825 1.74633,0.903019 1.95091,3.247962 0.95582,4.779138 -1.46033,2.247063 -4.62312,2.455701 -6.69079,0.955821 -2.75588,-1.999103 -2.96668,-6.004818 -0.95582,-8.602448 2.53047,-3.268851 7.38963,-3.480865 10.5141,-0.955818 3.78416,3.058171 3.99691,8.776192 0.95582,12.425758 -3.58381,4.300888 -10.16385,4.514105 -14.33741,0.955815 -4.81855,-4.108187 -5.03209,-11.552235 -0.95581,-16.249068 4.63171,-5.33684 12.94113,-5.550606 18.16072,-0.955811 5.85559,5.154665 6.06952,14.330407 0.95581,20.072378 -5.67719,6.374675 -15.71996,6.588733 -21.98404,0.955807"
       transform="translate(11.469929,-4.4115113)" />
    <path
       sodipodi:type="spiral"
       style="fill:none;stroke:#000000;stroke-width:1px;stroke-linecap:butt;stroke-linejoin:miter;stroke-opacity:1"
       id="path3043"
       sodipodi:cx="167.63744"
       sodipodi:cy="24.480053"
       sodipodi:expansion="1"
       sodipodi:revolution="3"
       sodipodi:radius="13.467759"
       sodipodi:argument="-17.830414"
       sodipodi:t0="0"
       d="m 167.63744,24.480053 c 0.35389,0.575084 -0.60061,0.760773 -0.95583,0.588201 -0.96264,-0.46766 -0.81607,-1.808407 -0.22058,-2.499857 1.0652,-1.236841 2.99853,-0.951129 4.04389,0.147054 1.5341,1.611626 1.09439,4.206311 -0.51468,5.587913 -2.14464,1.841459 -5.42056,1.241394 -7.13194,-0.882307 -2.1536,-2.672462 -1.39039,-6.637943 1.24993,-8.675971 3.19778,-2.468326 7.8571,-1.54054 10.22,1.617562 2.7846,3.721713 1.69142,9.077358 -1.98519,11.764028 -4.24479,3.101867 -10.29836,1.842793 -13.30805,-2.352816 -3.41982,-4.767318 -1.99451,-11.519878 2.72044,-14.852086 5.28946,-3.738233 12.74177,-2.14646 16.39611,3.088071 4.05701,5.811321 2.2986,13.963955 -3.45569,17.940142"
       transform="matrix(0.97681908,0.21406655,-0.21406655,0.97681908,17.960884,-29.38259)" />
    <text
       xml:space="preserve"
       style="font-size:40px;font-style:normal;font-variant:normal;font-weight:normal;font-stretch:normal;line-height:125%;letter-spacing:0px;word-spacing:0px;fill:#000000;fill-opacity:1;stroke:none;font-family:a dripping marker;-inkscape-font-specification:a dripping marker"
       x="226.75168"
       y="55.360634"
       id="text3061"
       sodipodi:linespacing="125%"><tspan
         sodipodi:role="line"
         id="tspan3063"
         x="226.75168"
         y="55.360634">Benjamin Legrand</tspan></text>
  </g>
</svg>
